<?xml version="1.0" encoding="utf-8"?>
<!-- Generator: Adobe Illustrator 29.5.1, SVG Export Plug-In . SVG Version: 9.03 Build 0)  -->
<svg version="1.0" id="Capa_1" xmlns="http://www.w3.org/2000/svg" xmlns:xlink="http://www.w3.org/1999/xlink" x="0px" y="0px"
	 viewBox="0 0 229.28 50" style="enable-background:new 0 0 229.28 50;" xml:space="preserve">
<style type="text/css">
	.st0{fill:#F5F5F5;}
	.st1{fill:#E86E1B;}
</style>
<g>
	<g>
		<g>
			<g transform="translate(876.953943, 856.155206)">
				<g>
					<path class="st0" d="M-793.38-816.51v-23.51l-10.45,18.26h-1.79l-10.49-18.26v23.51h-2.85v-28.88h2.93l11.27,19.77l11.35-19.77
						h2.89v28.88H-793.38z"/>
				</g>
			</g>
		</g>
		<g>
			<g transform="translate(1211.682928, 856.155206)">
				<g>
					<path class="st0" d="M-1112.81-816.11c-1.52,0-2.92-0.29-4.21-0.87c-1.29-0.58-2.4-1.38-3.34-2.4s-1.66-2.18-2.18-3.5
						s-0.77-2.71-0.77-4.17c0-1.52,0.26-2.93,0.77-4.25c0.52-1.32,1.25-2.48,2.2-3.5s2.07-1.82,3.36-2.4s2.69-0.87,4.21-0.87
						s2.91,0.29,4.19,0.87c1.27,0.58,2.39,1.38,3.34,2.4s1.68,2.18,2.2,3.5c0.52,1.31,0.77,2.73,0.77,4.25
						c0,1.46-0.26,2.86-0.77,4.17c-0.52,1.31-1.24,2.48-2.18,3.5c-0.94,1.02-2.05,1.82-3.34,2.4
						C-1109.85-816.4-1111.27-816.11-1112.81-816.11z M-1120.5-827.01c0,1.57,0.35,3,1.04,4.29c0.69,1.29,1.62,2.31,2.79,3.05
						c1.17,0.75,2.45,1.12,3.86,1.12s2.7-0.38,3.86-1.14c1.17-0.76,2.1-1.8,2.81-3.11c0.71-1.32,1.06-2.75,1.06-4.29
						c0-1.57-0.35-3.01-1.06-4.31c-0.71-1.3-1.64-2.33-2.81-3.09s-2.45-1.14-3.86-1.14s-2.69,0.39-3.84,1.18s-2.08,1.82-2.79,3.11
						C-1120.15-830.05-1120.5-828.61-1120.5-827.01z"/>
				</g>
			</g>
		</g>
		<g>
			<g transform="translate(1427.975749, 856.155206)">
				<g>
					<path class="st0" d="M-1307.02-817.53c-0.22,0.08-0.56,0.23-1.02,0.45c-0.46,0.22-1.02,0.41-1.67,0.57
						c-0.65,0.16-1.36,0.24-2.12,0.24c-0.79,0-1.53-0.15-2.22-0.45s-1.24-0.75-1.65-1.36s-0.61-1.36-0.61-2.26v-15.17h-2.93v-2.2
						h2.93v-7.16h2.77v7.16h4.88v2.2h-4.88v14.4c0.05,0.76,0.33,1.33,0.83,1.71s1.08,0.57,1.73,0.57c0.76,0,1.45-0.13,2.07-0.39
						s1-0.44,1.14-0.55L-1307.02-817.53z"/>
				</g>
			</g>
		</g>
		<g>
			<g transform="translate(1535.072048, 856.155206)">
				<g>
					<path class="st0" d="M-1404.76-816.11c-1.52,0-2.93-0.29-4.23-0.87s-2.43-1.38-3.38-2.4s-1.69-2.19-2.22-3.52
						s-0.79-2.75-0.79-4.27c0-1.98,0.45-3.8,1.36-5.45s2.16-2.98,3.76-3.97s3.42-1.48,5.45-1.48c2.09,0,3.91,0.5,5.47,1.51
						c1.56,1,2.79,2.33,3.68,3.97c0.89,1.64,1.34,3.44,1.34,5.39c0,0.22,0,0.43,0,0.63s-0.01,0.36-0.04,0.47h-18.14
						c0.14,1.52,0.56,2.87,1.28,4.05s1.65,2.12,2.81,2.81c1.15,0.69,2.41,1.04,3.76,1.04c1.38,0,2.69-0.35,3.93-1.06
						c1.23-0.71,2.09-1.63,2.58-2.77l2.4,0.65c-0.43,1-1.1,1.91-1.99,2.73c-0.9,0.81-1.95,1.44-3.15,1.89
						C-1402.08-816.33-1403.38-816.11-1404.76-816.11z M-1412.57-828.11h15.66c-0.11-1.55-0.52-2.9-1.24-4.07s-1.65-2.08-2.81-2.74
						c-1.15-0.66-2.42-1-3.8-1s-2.64,0.33-3.78,1c-1.14,0.66-2.07,1.59-2.79,2.76C-1412.05-830.97-1412.46-829.62-1412.57-828.11z"
						/>
				</g>
			</g>
		</g>
		<g>
			<g transform="translate(1748.026995, 856.155206)">
				<g>
					<path class="st1" d="M-1608.28-822.82c0-1.38,0.39-2.6,1.16-3.64c0.77-1.04,1.85-1.85,3.23-2.42s2.97-0.85,4.76-0.85
						c0.89,0,1.8,0.07,2.73,0.2c0.92,0.14,1.72,0.35,2.4,0.65v-1.14c0-1.36-0.4-2.4-1.2-3.13c-0.8-0.73-1.99-1.1-3.56-1.1
						c-1.17,0-2.28,0.2-3.34,0.61c-1.06,0.41-2.17,1-3.33,1.79l-1.75-3.58c1.41-0.92,2.85-1.61,4.33-2.07s3.03-0.69,4.66-0.69
						c3.04,0,5.4,0.76,7.1,2.28c1.69,1.52,2.54,3.69,2.54,6.51v6.79c0,0.57,0.1,0.98,0.3,1.22c0.2,0.24,0.54,0.39,1,0.45v4.43
						c-0.49,0.08-0.93,0.15-1.32,0.2c-0.39,0.05-0.73,0.08-1,0.08c-1.08,0-1.9-0.24-2.46-0.73c-0.56-0.49-0.9-1.08-1.04-1.79
						l-0.12-1.1c-0.92,1.19-2.07,2.12-3.46,2.77c-1.38,0.65-2.79,0.98-4.23,0.98c-1.41,0-2.68-0.29-3.8-0.87
						c-1.13-0.58-2.01-1.38-2.64-2.4C-1607.96-820.4-1608.28-821.54-1608.28-822.82z M-1595.02-821.72c0.3-0.32,0.54-0.65,0.73-0.97
						c0.19-0.33,0.29-0.62,0.29-0.9v-2.16c-0.65-0.27-1.36-0.48-2.12-0.63s-1.48-0.22-2.15-0.22c-1.41,0-2.57,0.31-3.48,0.92
						s-1.36,1.42-1.36,2.42c0,0.54,0.15,1.06,0.45,1.55c0.3,0.49,0.73,0.88,1.3,1.18c0.57,0.3,1.25,0.45,2.03,0.45
						c0.81,0,1.61-0.16,2.4-0.47C-1596.14-820.87-1595.51-821.26-1595.02-821.72z"/>
				</g>
			</g>
		</g>
		<g>
			<g transform="translate(1955.500085, 856.155206)">
				<g>
					<path class="st1" d="M-1774.39-816.51h-5.45v-11.96c0-1.71-0.3-2.96-0.9-3.74c-0.6-0.79-1.42-1.18-2.48-1.18
						c-0.73,0-1.47,0.19-2.22,0.57s-1.42,0.9-2.01,1.57c-0.6,0.66-1.03,1.43-1.3,2.3v12.45h-5.45v-21.31h4.92v3.95
						c0.54-0.92,1.23-1.7,2.07-2.34s1.81-1.13,2.91-1.46c1.1-0.34,2.26-0.51,3.48-0.51c1.33,0,2.42,0.24,3.27,0.71
						c0.85,0.47,1.51,1.11,1.95,1.91c0.45,0.8,0.76,1.7,0.94,2.71c0.18,1,0.26,2.02,0.26,3.05v13.28H-1774.39z"/>
				</g>
			</g>
		</g>
		<g>
			<g transform="translate(2175.57277, 856.155206)">
				<g>
					<path class="st1" d="M-1994.26-827.17c0-2.06,0.41-3.93,1.22-5.59c0.81-1.67,1.94-2.99,3.38-3.97
						c1.44-0.98,3.08-1.46,4.92-1.46c1.57,0,2.99,0.39,4.25,1.16c1.26,0.77,2.24,1.76,2.95,2.95v-12.12h5.45v23.59
						c0,0.57,0.09,0.98,0.28,1.22c0.19,0.24,0.51,0.39,0.98,0.45v4.43c-0.95,0.19-1.72,0.28-2.32,0.28c-0.98,0-1.78-0.24-2.42-0.73
						s-1-1.13-1.08-1.91l-0.08-1.34c-0.79,1.33-1.85,2.35-3.19,3.05c-1.34,0.71-2.74,1.06-4.21,1.06c-1.46,0-2.81-0.28-4.05-0.85
						c-1.23-0.57-2.31-1.36-3.21-2.36c-0.91-1-1.61-2.18-2.12-3.52C-1994.01-824.18-1994.26-825.62-1994.26-827.17z
						 M-1977.54-824.32v-5.08c-0.27-0.79-0.71-1.49-1.3-2.11c-0.6-0.62-1.26-1.12-1.99-1.48c-0.73-0.37-1.46-0.55-2.2-0.55
						c-0.84,0-1.6,0.18-2.28,0.53c-0.68,0.35-1.27,0.83-1.77,1.42c-0.5,0.6-0.88,1.29-1.14,2.07c-0.26,0.79-0.39,1.61-0.39,2.48
						s0.14,1.69,0.43,2.46c0.28,0.77,0.7,1.44,1.24,2.01s1.17,1.02,1.89,1.34c0.72,0.33,1.5,0.49,2.34,0.49
						c0.52,0,1.04-0.09,1.57-0.26c0.53-0.18,1.03-0.42,1.5-0.73c0.48-0.31,0.9-0.69,1.26-1.14
						C-1978.01-823.33-1977.73-823.81-1977.54-824.32z"/>
				</g>
			</g>
		</g>
		<g>
			<g transform="translate(2412.864872, 856.155206)">
				<g>
					<path class="st1" d="M-2197.42-816.11c-1.74,0-3.29-0.29-4.68-0.87s-2.56-1.39-3.52-2.42c-0.96-1.03-1.7-2.21-2.22-3.54
						c-0.51-1.33-0.77-2.72-0.77-4.19c0-1.49,0.26-2.9,0.77-4.23c0.52-1.33,1.25-2.51,2.22-3.54c0.96-1.03,2.14-1.84,3.52-2.42
						c1.38-0.58,2.94-0.87,4.68-0.87s3.29,0.29,4.66,0.87c1.37,0.58,2.54,1.39,3.52,2.42c0.98,1.03,1.72,2.21,2.22,3.54
						c0.5,1.33,0.75,2.74,0.75,4.23c0,1.46-0.25,2.86-0.75,4.19s-1.23,2.51-2.2,3.54c-0.96,1.03-2.14,1.84-3.52,2.42
						C-2194.13-816.4-2195.69-816.11-2197.42-816.11z M-2202.99-827.13c0,1.25,0.24,2.35,0.73,3.31s1.15,1.72,1.99,2.26
						c0.84,0.54,1.79,0.81,2.85,0.81c1.03,0,1.97-0.28,2.81-0.83c0.84-0.56,1.51-1.31,2.01-2.28c0.5-0.96,0.75-2.07,0.75-3.32
						c0-1.22-0.25-2.32-0.75-3.29c-0.5-0.98-1.17-1.74-2.01-2.28c-0.84-0.54-1.78-0.81-2.81-0.81c-1.06,0-2.01,0.28-2.85,0.83
						c-0.84,0.56-1.5,1.32-1.99,2.28C-2202.75-829.48-2202.99-828.38-2202.99-827.13z"/>
				</g>
			</g>
		</g>
	</g>
	<g>
		<path class="st0" d="M12.42,29.79c-0.9,0.53-3.75,0.38-4.61-1.29c-1.89-3.71,2.84-7.2,5.47-3.87c0.26,0.33,0.35,0.49,0.31,0.57
			c-0.08,0.13-0.41,0.07-0.8,0.01c-1.27-0.2-1.91-0.3-2.42-0.12c-0.11,0.04-0.67,0.24-0.98,0.79c-0.34,0.61-0.33,1.55,0.28,2.13
			c0.46,0.43,1.23,0.55,1.81,0.32c0.23-0.09,0.41-0.33,0.6-0.37c0.4-0.08,0.93,0.12,1.4,0.11c0.06,0,0.12,0.12,0.15,0.24
			c0.02,0.08,0.04,0.3-0.44,0.81C12.93,29.4,12.61,29.67,12.42,29.79z M22.1,23.43c0.79-0.11,1.35-1.32,1.96-1.78
			c0.03-0.02,0.06-0.03,0.09-0.03c0.47-0.02,1.03-0.12,1.5-0.07c0.12,0.01,0.19,0.15,0.11,0.25c-0.1,0.14-0.18,0.3-0.25,0.34
			c-0.3,0.18-0.93,0.06-1.32,0.28c-0.36,0.2-1.03,1.28-1.32,1.49c-0.03,0.02-0.08,0.03-0.12,0.03l-2.2-0.33
			c-0.01-0.06,0.12-0.18,0.13-0.18C21.1,23.43,21.7,23.48,22.1,23.43z M23.21,17.37c0.81-0.56,1.2-0.84,2.24-0.75
			c0.18,0.02,0.49,0.06,0.74,0.14c0.15,0.05,0.15,0.27-0.01,0.31c-1.07,0.31-2.16,0.63-3.18,1.07c-0.24,0.1-0.47,0.22-0.7,0.34
			c-0.17,0.09-0.33-0.15-0.18-0.27C22.61,17.81,23.14,17.42,23.21,17.37z M30.16,28.92c-1.37-1.71-0.97-4.05,0.68-5.37
			c0.08-0.07,0.2-0.04,0.25,0.06l0.65,1.38c0.03,0.06,0.02,0.12-0.02,0.17c-0.56,0.7-0.86,1.49-0.44,2.37
			c0.94,1.92,4.2,0.73,3.28-1.6c-0.27-0.68-0.82-0.99-1.49-1.16c-0.05-0.01-0.09-0.04-0.11-0.09l-0.71-1.57
			c-0.05-0.11,0.03-0.23,0.14-0.23c0.54-0.01,1.02,0.02,1.55,0.21c1.22,0.44,2,1.31,2.33,2.55C37.26,29.41,32.67,32.05,30.16,28.92z
			 M35.39,21.83c0.22-0.1,0.34-0.21,0.33-0.31c0-0.29-0.97-0.57-2.9-0.83h-0.01c-0.42-0.01-0.84,0.02-1.28,0.1
			c-0.07,0.01-0.14,0.03-0.21,0.04c-0.08,0.02-0.16-0.03-0.19-0.1l-0.5-1.42c-0.04-0.11,0.04-0.22,0.15-0.22h1.14
			c0.22,0,0.71-0.38,0.83-0.59c0.66-1.14,0.16-3.19-0.91-3.93c-0.13-0.09-0.31-0.08-0.45-0.17c-0.35-0.24-0.8-1.03-1.24-1.25
			c-0.04-0.02-0.08-0.04-0.13-0.05c-0.4-0.09-0.92,0.74-1.21,1.1c-0.03,0.04-0.06,0.07-0.09,0.1l0,0c-0.08,0.08-0.23,0.06-0.27-0.05
			c-0.3-0.77-0.55-1.68-0.9-2.4c-0.46-0.93-1.09-1.13-2.1-1.18c-0.11-0.01-0.23-0.02-0.34-0.02l0,0c-0.47-0.03-0.92,0-0.99,0.55
			c-0.02,0.15,0.3,0.52,0.37,0.54c0.25,0.07,1.19,0,1.52,0.08c0.05,0.01,0.09,0.04,0.11,0.09l1.6,3.31l0.07,0.15
			c-0.82-0.28-1.6-0.56-2.43-0.6l0,0c-0.34-0.02-0.68,0.01-1.04,0.09c-1.67,0.38-3.55,2.37-4.72,3.61c-0.12,0.13-0.69,0.84-0.9,1.07
			c-0.04,0.04-0.07,0.07-0.08,0.07l-4.86-1.13c-0.01,0-0.02,0-0.03,0L9.3,18.39l0,0l-0.25-0.01c-0.1,0-0.19,0.09-0.16,0.19
			c0.09,0.4,1,1.02,1.21,1.17c1.46,1.01,3.5,1.29,4.64,2.09c0.73,0.51,1.48,1.64,2.22,2.22c0.13,0.12-0.28,1.01-0.33,1.04
			c-0.05,0.04-0.33,0.12-0.57,0.17c-0.08,0.02-0.16,0.03-0.23,0.03c-0.08,0.01-0.15-0.04-0.17-0.12c-0.11-0.44-0.34-1.01-0.62-1.33
			c-0.3-0.36-1.03-1.61-2.58-2.17c-0.23-0.08-0.98-0.34-1.97-0.28c-1.71,0.1-4.21,1.21-4.99,3.76C4.77,27.55,5.95,30,7.79,31.2
			c1.49,0.97,3.64,1.28,5.25,0.36c1.23-0.7,2.33-2.37,2.36-2.95c0-0.06,0.01-0.38,0.2-0.48c0.12-0.07,0.27-0.02,0.31,0
			c0.63,0.2,1.98-0.15,4.44,0.29c0.86,0.15,1.46,0.33,2.09,0.12c0.08-0.03,0.27-0.09,0.8-0.27c0.54-0.18,0.8-0.26,0.84-0.28
			c1.32-0.46,3.7-7.48,4.58-8.8c0.04-0.07,0.14-0.2,0.27-0.21c0.52-0.03,0.85,1.83,1.03,2.4c0.01,0.02,0.02,0.06,0,0.11
			c-0.02,0.05-0.05,0.08-0.07,0.09c-0.11,0.07-0.86,0.59-1.14,0.83c-0.11,0.09-0.19,0.2-0.37,0.4c-1.1,1.34-1.35,2.39-1.26,2.63
			c0.01,0.04,0.06,0.17,0.16,0.19c0.04,0.01,0.06-0.01,0.11,0c0.1,0.02,0.17,0.14,0.16,0.2c0,0.01-0.01,0.03-0.01,0.06
			c0,0,0,0.02-0.01,0.05c-0.16,2.02,0.66,3.43,0.66,3.43c0.15,0.22,0.54,0.88,1.29,1.45c1.42,1.08,3.77,1.63,5.81,0.58
			c1.81-0.93,2.47-2.66,2.65-3.23c0.14-0.45,0.44-1.58,0.13-2.93c-0.13-0.54-0.65-2.42-2.27-3.24
			C35.64,21.92,35.49,21.86,35.39,21.83z M30.79,16.18c-0.07-0.09-0.02-0.23,0.09-0.26c1.24-0.28,1.32,0.51,1.28,1.65
			c-0.21,0.06-0.15-0.05-0.2-0.11C31.57,17.03,31.13,16.64,30.79,16.18z"/>
		<path class="st1" d="M4.68,18.16c-0.08,0.58-0.15,1.18-0.18,1.81c-0.05,0.82-0.1,1.88,0.09,3.22c0.1,0.68,0.23,1.27,0.37,1.76
			c-0.02-0.34,0-0.76,0.13-1.23c0.19-0.71,0.64-1.6,1.67-2.36c0,0,0.84-0.72,2.44-1.17c0,0-1.39-1.2-1.4-1.83
			c-0.01-0.52,0.1-0.89,0.79-0.99c0,0,0.3-0.13,1.35-0.03c1.05,0.09,0.52,0.04,1.27,0.11c0,0,1.7-0.02,2.55,0.04
			c0.85,0.06,2.43,0.5,2.43,0.5s1.2,0.35,2.09,0.5c0,0,3.36-3.71,4.02-3.88s0.7-0.35,0.7-0.35c-0.02-0.06-0.05-0.12-0.07-0.18
			c0,0-1.51-2.31-4.98-6.21c0,0-0.67-0.97-1.45,0.1c0,0-0.79,0.85-1.38,1.76c0,0-0.63,0.91-0.93,1.15c0,0-0.39,0.42-0.46,0.45
			c0,0-0.25-0.17-0.52-0.48c-0.27-0.31-0.81-0.88-1.19-0.86s-0.4,0.09-0.69,0.47C11.31,10.46,7.59,14.04,4.68,18.16z"/>
		<path class="st0" d="M40.44,19.84c-0.11-2.95-0.75-5.66-2-8.12c-0.73-1.45-2.74-4.98-6.83-7.51c-7.31-4.52-16.2-2.67-20.28,0.12
			C9.65,5.48,8.14,7.05,8.14,7.05c-2.21,2.31-3.32,4.52-3.56,5.03c-0.55,1.12-1.91,4.22-1.9,8.41c0.01,2.65,0.56,4.69,0.88,5.69
			c0.78,2.46,1.9,4.19,3.09,5.88c1.77,2.5,4.61,6.19,8.86,10.53c0,0,2.53-1.02,3.23-2.12c0.7-1.1-1.22-2.3-1.22-2.3
			s-1.95-1.34-2.28-2.15c-0.3-0.75-0.25-1.48,2.11-2.35c2.59-0.87,6.07-1.12,7.41-1.13c-0.53,0.13-1.31,0.33-2.24,0.66
			c-1.63,0.58-3.04,1.09-3.1,1.85c-0.04,0.43,0.33,0.87,1.03,1.29c1.62,0.98,3.28,1.69,4.77,3.2c1.49,1.51-0.56,4.03-2.69,5.31
			c-2.13,1.29-3.45,1.79-3.45,1.79s1.38,1.52,1.86,1.69c0.48,0.17,1.01,0.47,1.97-0.36s5.08-4.84,13.99-16.55
			C36.91,31.42,40.69,26.17,40.44,19.84z M37.89,24.98c-0.13,0.54-0.29,1.12-0.5,1.71c-0.74,2.12-1.79,3.78-2.75,5
			c-3.07-0.26-6.25-0.47-9.52-0.61c-6.11-0.26-11.92-0.27-17.4-0.09C6.7,29.53,5,26.66,4.6,22.69c-0.06-0.55-0.21-2.35,0.17-4.66
			c0.24-1.48,0.91-5.29,4-8.87c1.05-1.22,3.58-3.8,7.73-5.11c3.56-1.13,6.61-0.79,8.14-0.52c1.61,0.29,4.08,0.96,6.57,2.67
			c5.02,3.44,6.54,8.62,6.95,10.2C38.16,16.4,39.16,20.15,37.89,24.98z"/>
	</g>
</g>
</svg>
