<?xml version="1.0" encoding="UTF-8"?>
<svg id="Capa_1" xmlns="http://www.w3.org/2000/svg" version="1.1" viewBox="0 0 960.35 276.51">
  <!-- Generator: Adobe Illustrator 29.4.0, SVG Export Plug-In . SVG Version: 2.1.0 Build 152)  -->
  <defs>
    <style>
      .st0 {
        fill: #e86e1b;
      }

      .st1 {
        fill: #f5f5f5;
      }
    </style>
  </defs>
  <path class="st1" d="M116.17,40.57c-12.56,0-24.44,2.97-34.95,8.26-1.41.7-2.79,1.44-4.14,2.23-23.26,13.5-38.9,38.67-38.9,67.5,0,1.5.04,2.98.13,4.45.06,1.09.14,2.17.25,3.25.82,8.43,2.99,16.46,6.28,23.88.5.94,1.01,1.87,1.52,2.8,0,0,0,.01,0,.01,1.46,2.67,2.96,5.3,4.49,7.9h0c.52.89,1.04,1.77,1.57,2.65.01.02.03.04.04.06.5.84,1.01,1.68,1.53,2.51,7.25,11.79,15.18,22.82,23.69,32.98,2.18,2.61,4.41,5.16,6.66,7.65.18.2.36.4.54.59,1.52,1.66,3.04,3.29,4.59,4.89.23.24.46.48.69.72.91-.73,1.86-1.47,2.85-2.21.02,0,.03,0,.05-.03,1.3-.97,2.66-1.92,4.07-2.86,0-.01.01-.02.02-.02.58-.39,1.17-.77,1.76-1.15.64-.41,1.27-.8,1.91-1.19.02,0,.05-.03.07-.04,1.56-.94,2.74-2.11,3.37-3.42.35-.72.54-1.48.54-2.26,0-2.09-1.48-3.67-2.13-4.34-6.85-7.15-13.41-12.2-12.53-15.94.03-.13.13-.5.64-1.26,6.3-9.44,30.06-8.92,31.77-8.87,4.2.12,10.72.7,10.72.7-.15-.01-.31-.01-.46-.01-4.81,0-9.31.76-13.09,2.07-.01,0-.03.01-.04.02-3.11.68-5.75,1.67-7.61,2.81h-.01c-3.23,1.23-5.26,3.06-5.26,5.1,0,.74.36,1.46.36,1.46.52,1.15,1.41,1.77,1.8,2.01l2.48,1.37s.01,0,.02.01c.73.48,1.33.77,1.46.84.4.19,1.18.63,2.89,1.71,3.94,2.64,7.87,5.28,11.8,7.92h.01c3.77,2.66,4.09,5.07,4.12,5.9.12,2.89-2.43,5.48-7.25,10.37-.84.86-1.49,1.47-1.95,1.9-3.43,3.21-7.68,6.52-12.51,9.64-.14.09-.29.18-.43.27-1.72,1.1-3.44,2.12-5.14,3.06,2.91,2.55,5.86,5,8.87,7.36h.01c.77.61,1.53,1.2,2.31,1.79h.01c.14.12.28.23.43.33.14-.1.28-.21.41-.31.82-.63,1.64-1.26,2.45-1.9,7.6-5.98,14.91-12.54,21.89-19.64.42-.42.83-.84,1.24-1.27,0,0,.01-.01.01-.02,7.95-8.58,14.32-16.16,19.04-22.02,11.64-14.45,21.32-28.42,27-42.13,1.41-3.4,2.23-5.98,2.66-7.4,2.19-7.18,3.36-14.79,3.36-22.69,0-43.07-34.92-77.99-77.99-77.99ZM186.09,134.58c-.08.39-.17.78-.26,1.17-.33,1.49-.71,2.96-1.14,4.4-.03.12-.06.24-.1.36-.07.22-.13.44-.21.66v.02c-.7,2.26-1.51,4.48-2.41,6.64-.19.43-.37.86-.56,1.29-.57,1.28-1.17,2.55-1.82,3.79-.21.41-.43.83-.65,1.24-.27.5-.55,1.01-.84,1.51-.49.86-1,1.71-1.52,2.55-.64,1.03-1.31,2.04-2.01,3.04-.01.01-.02.02-.02.03-.08.11-.15.21-.23.32-.07.1-.14.2-.21.3-.52.74-1.06,1.46-1.62,2.18-.11.14-.22.28-.33.42-.22.29-.44.58-.68.86-.6-.06-1.2-.12-1.81-.17-.2-.02-.39-.04-.59-.05-2.16-.21-4.34-.41-6.55-.58-.22-.02-.43-.04-.63-.05-1.08-.08-2.17-.17-3.27-.25-1.75-.12-3.51-.24-5.29-.35h-.01c-11.9-.76-24.37-1.16-37.21-1.16s-24.78.38-36.46,1.11c-.4.02-.8.04-1.19.07-.44.03-.88.06-1.32.09-.44.03-.87.06-1.31.09-2.65.19-5.26.38-7.84.6-.62.05-1.24.1-1.85.15-.18.02-.35.03-.53.05-.53.05-1.06.09-1.58.14-1.07.1-2.14.2-3.19.3-.87-1.07-1.7-2.16-2.51-3.28-.73-1.03-1.45-2.07-2.13-3.14-.03-.05-.06-.09-.09-.14-.13-.2-.25-.4-.38-.6,0,0,0-.02-.02-.03-.29-.46-.56-.91-.83-1.36-.48-.81-.95-1.64-1.4-2.47,0-.02-.02-.03-.03-.05-.15-.28-.3-.57-.46-.86-.22-.42-.44-.85-.65-1.28-.03-.08-.07-.14-.1-.21-.61-1.22-1.18-2.46-1.71-3.72-.64-1.47-1.22-2.97-1.75-4.49-.76-2.15-1.42-4.35-1.97-6.59-.01-.04-.02-.07-.03-.11h0c-1.21-4.92-1.91-10.02-2.08-15.28-.02-.75-.03-1.5-.03-2.25,0-.47,0-.95.02-1.42,0-.48.02-.95.04-1.42.01-.33.02-.65.04-.97.03-.63.07-1.25.12-1.88,0-.03,0-.06.01-.1.03-.43.07-.87.12-1.3v-.05s.01-.08.01-.13h0c.01-.11.02-.21.03-.3,2.39-23.32,15.71-43.35,34.68-54.75,2.33-1.4,4.75-2.68,7.25-3.81,8.45-3.83,17.76-6.04,27.56-6.26.54-.01,1.07-.02,1.61-.02,2.33,0,4.64.11,6.91.33,36.24,3.52,64.57,34.45,64.57,72.08,0,5.17-.54,10.22-1.56,15.09Z"/>
  <path class="st0" d="M120.91,94.27c-.24.16-.52.26-.8.28-.21.01-.42.03-.63.04-.4.03-.77.2-1.05.48l-7.38,6.76c-2.73,2.73-5.07,5.66-7.8,8.39-.67.67-1.66.88-2.56.61-3.84-1.17-7.54-2.12-10.98-2.82-1.59-.34-3.13-.61-4.59-.83-.02-.01-.04-.01-.06-.01-.42-.08-.87-.14-1.33-.19-.18-.03-.36-.05-.54-.07,0,0-.29-.04-.64-.08-1.44-.18-14.11-.55-16.53-.63-1.32-.04-3.02.05-5.07.73-1.51.5-2.5,1.25-2.83,2.25-.47,1.45.47,3.26,2.53,5.24.54.53,1.15,1.06,1.84,1.59.28.23.58.46.89.68.68.51,1.42,1.02,2.22,1.53l.54.34c-.99.02-1.99.03-2.98.05,0,0,0,0,0,0-1.03.13-1.79.4-2.44.65-.76.3-2.41.97-4.54,1.98h0c-5.69,3.27-9.41,8.72-9.41,14.89,0,.34.01.68.04,1.01-1.23-4.95-1.95-10.1-2.12-15.4-.02-.75-.03-1.5-.03-2.25,0-2.34.11-4.64.33-6.92.04-.43.19-.83.44-1.19,3.01-4.27,6.73-9.16,10.9-14.25,5.77-7.04,6.02-7.75,9.69-11.31.48-.46.93-.96,1.35-1.47,2.25-2.78,4.27-5.4,6.89-7.49.59-.47,1.67-1.27,2.77-1,.28.07.49.19.62.28.01,0,.01.01.02.01.17.12.42.32.71.58.76.69,1.19,1.34,1.31,1.52.28.4.77,1.03,1.67,2.05.99,1.12,2.73,1.13,3.75.05,1.38-1.47,3.17-3.21,5.06-6.47,0,0,.97-1.67,5.68-7.45.26-.31.85-1.03,1.8-1.18.81-.13,1.51.21,1.9.43.15.13.39.34.68.6,3.55,3.21,5.59,6.06,7.07,8.02,2.6,3.46,3.71,4.46,6.27,7.41,2.93,3.37,4.63,5.2,6.43,7.86.51.76,1.04,1.72,1.48,2.53.4.75.17,1.69-.54,2.17Z"/>
  <path class="st1" d="M187.1,139.77c-.3-1.39-.72-2.74-1.27-4.02-1.61-3.84-4.26-7.13-7.61-9.54,0,0-1.33-1.7-1.2-2.67.01-.08.07-.36-.04-.7-.07-.25-.2-.43-.28-.54-.36-.17-.73-.32-1.1-.47-3.08-1.24-6.5-1.93-10.09-1.93-1.45,0-2.85.12-4.23.33h-.01c-.29.05-.59.1-.89.16-.18.01-.54.01-.93-.19-.6-.31-.83-.85-.9-.99l-1.94-5.09-.52-1.39c.76-.05,1.53-.11,2.29-.16h1.35c1.18,0,2.31-.52,3.05-1.43,1.74-2.17,2.89-4.68,2.93-7.52v-.13c0-5.13-3.61-8.57-5.07-9.75-.3-.25-.66-.41-1.04-.45-.34-.03-.8-.14-1.25-.43-.53-.35-.82-.8-.94-1.04l-1.89-2.21-.04.04s-.01-.02-.03-.03l.02-.02-1.05-1.22-.04.04c-.47-.6-1.14-.97-1.89-.97-.82,0-1.56.46-2.04,1.19h-.01s-1.13,1.34-1.13,1.34h.01c-.51.58-.88,1.32-1.06,2.16-.31-.93-3.19-9.54-4.51-12.19-.11-.25-.35-.69-.81-1.13-1.13-1.09-2.71-1.22-3.69-1.2-4.95.04-8.07.03-8.81-.05-.09-.01-.45-.05-.88.04-.61.13-1.02.45-1.1.52-.59.46-.96,1.17-.96,1.95,0,.33.07.59.1.69.15.49.45.86.77,1.14.45.4,1.04.58,1.65.58h6.71c.95,0,1.81.34,2.38.88.62.58.7,1.37.75,1.66.21,1.25.81,3.25,2.39,6.63.82,2.15-1.19,4.35-3.4,3.67-.68-.21-1.39-.39-2.11-.55-1.9-.41-3.39-.57-4.15-.57-.4,0-.8.02-.8.02-.45.02-.89.06-1.32.13-.85.15-1.52.29-1.86.37-.77.21-1.42.46-2.07.72-4.55,1.89-7.99,4.49-7.99,4.49-.71.54-1.42,1.1-2.12,1.71-.78.67-1.52,1.35-2.21,2.05-.75.75-1.46,1.5-2.1,2.26-.27.33-.54.66-.8.97l-3.11,3.8h0s-1.07,1.33-1.07,1.33h-.01c-.73.9-1.46,1.79-2.19,2.68l-5.39-1.24-10.58-2.45-.41-.09c-1.29-.3-2.57-.6-3.86-.9-.1-.02-.19-.05-.28-.07-.69-.17-1.4-.27-2.1-.27h-16.46c-1.26,0-2.38.4-3.02,1.02-.37.34-.57.75-.57,1.19,0,.07.01.14.02.22h0c.08.23.24.59.55.96.56.67,1.14.83,2.35,1.56.29.16.73.44,1.26.81h.01c1.21.74,2.58,1.43,4.09,2.07.31.15.64.28.97.41,0,0,.19.08.38.15,1.18.43,5.75,1.18,9.43,3.05.21.1.56.28.98.53,0,.01.01.01.01.01.15.08.3.16.45.25,4.38,2.48,8.08,5.16,10.63,7.57.08.07.15.14.23.21,1.11,1.09,1.99,2.12,2.59,3.05.28.43.68.77,1.14,1.02.13.07.27.13.4.2-.25.39-.46.79-.65,1.2-.14.35-.26.71-.36,1.07-.16.58-.24,1.19-.24,1.81,0,.75.12,1.49.36,2.21-.34-.01-.69-.02-1.05-.02-.67,0-1.73.01-3.08.22-.5.08-1.18.2-1.97.42-.25-.09-.5-.2-.75-.29-.03,0-.06-.02-.09-.04-.11-.07-.14-.2-.15-.23-.08-.31-.19-.74-.33-1.22-.16-.51-.48-1.5-1.03-2.68-.31-.66-.66-1.31-1.04-1.95-.86-1.43-1.89-2.77-3.05-3.94-.15-.14-.29-.28-.44-.42-.14-.13-.27-.25-.4-.38-.06-.05-.11-.09-.17-.14-.28-.25-.56-.48-.85-.71-.04-.03-.08-.06-.12-.1-.02,0-.03-.02-.05-.04-.1-.07-.2-.13-.29-.21-.04-.03-.07-.05-.11-.08-.06-.04-.1-.08-.15-.1-.09-.07-.18-.14-.28-.21-.11-.08-.22-.15-.33-.22-.02-.02-.06-.03-.08-.04-.11-.09-.21-.16-.32-.22-.16-.1-.32-.2-.49-.3-.18-.1-.37-.21-.55-.3-.19-.11-.37-.21-.56-.3-.19-.1-.38-.2-.57-.28-.14-.07-.3-.13-.44-.2-.39-.17-.79-.33-1.2-.48-.09-.04-.2-.07-.3-.1-.14-.05-.29-.1-.44-.14-.2-.07-.41-.14-.62-.19-.2-.06-.42-.11-.62-.16-.13-.03-.27-.06-.4-.09h-.02s-.04-.01-.05-.01c-.02-.01-.03-.01-.05-.01,0-.01-.03-.01-.04-.01h-.01s-.04,0-.07-.02c-.07-.02-.15-.04-.23-.05-.01,0-.03-.01-.04-.01-.16-.03-.3-.06-.46-.08h-.02s-.07-.01-.1-.02c-.14-.02-.29-.04-.43-.06-.18-.03-.38-.05-.57-.07-.11,0-.22-.02-.32-.03-.22-.02-.43-.03-.65-.05-.22-.01-.44-.02-.66-.02-.14-.01-.29-.01-.45-.01h-.07c-.08,0-.16,0-.24.01-.08-.01-.16,0-.24.01h-.03s-.02,0-.02,0c-.01-.01-.02,0-.02,0-.01-.01-.02,0-.02,0,0-.01-.02-.01-.03,0-.01-.01-.03-.01-.04,0-.03-.01-.06-.01-.09,0-.09,0-.19,0-.28.01-.03,0-.06,0-.08.01-.03,0-.06,0-.09,0h-.11c-.13.01-.24.02-.36.03-.14.01-.31.02-.46.04-.03,0-.05,0-.1.01h-.01s-.04.01-.06.01h-.01c-.22.02-.46.05-.7.09-.32.05-.65.11-.98.19-.36.08-.72.16-1.07.26-.12.03-.24.06-.36.11-5.22,1.52-9.57,5.2-12.12,10.04h0c-1.54,2.97-2.43,6.33-2.43,9.93,0,.42,0,.83.04,1.24.03.51.08,1.01.14,1.51.17,1.3.45,2.56.84,3.77.02.07.04.15.07.22.03.08.07.14.1.22,0,.02,0,.04.02.07.14.43.28.87.46,1.28.13.31.27.61.47.89.01.02.02.03.03.05.67.94,1.16,1.72,1.63,2.49.28.46.55.93.85,1.4.01.01.02.02.02.03.37.47.73.94,1.09,1.42.69.73,1.43,1.4,2.22,2.02,1.15.9,2.4,1.68,3.73,2.3.63.3,1.29.52,1.97.68,1.16.28,2.37.36,3.57.27,2.65-.23,5.33-.42,8.05-.62.45-.03.89-.06,1.34-.09.27-.02.54-.04.81-.06.36-.02.72-.1,1.04-.27.27-.13.54-.27.81-.42,3.64-1.97,6.62-5.07,8.5-8.86.49-.96.9-1.96,1.23-3.01t.01-.02c.34-1.11,1.31-1.91,2.47-1.99.38.11.77.22,1.15.34h.01c.84.24,1.75.45,2.72.61h.01c1.2.22,2.47.35,3.81.41h.02c.51.03,1.03.04,1.55.04,1.46,0,2.86-.09,4.18-.25h.02c1.28-.18,2.49-.41,3.58-.72.87-.24,1.83-.11,2.54.44.74.57,1.58,1.05,2.49,1.4.9.35,1.88.58,2.9.67h.01c.44.04.9.05,1.39.03,2.52-.11,4.5-1.12,5.73-1.94.25.03.64.05,1.11,0,2.15-.18,3.65-1.4,4.52-2.12.64-.52,1.57-1.41,2.43-2.73l2.05-3.54c.98-2.15,1.94-4.32,2.92-6.47l2.06-4.83c1.31-3.05,2.62-6.1,3.93-9.16h0s.87-2.04.87-2.04c1.09-2.81,2.18-5.63,3.26-8.45,0-.01.01-.02.01-.02.06-.2.34-1.38,1-1.79.07-.05.22-.14.41-.14.09,0,.4.02.75.48.29.38.53.95.72,1.66.09.31.24.8.33,1.11l3.04,8.01s.01.01.01.02l.32.8v.02c-.01.44-.26.83-.67,1.1-.06.03-.12.07-.18.1-1.83.96-3.5,2.14-4.98,3.48-.03.02-.05.05-.08.07-2.36,2.15-4.24,4.72-5.47,7.6-.02.05-.04.09-.06.14-.01.01-.02.02-.02.03-.57,1.36-1.01,2.76-1.27,4.23h0c-.07.48-.14.94-.21,1.41.2.55.69.93,1.25.93.47,0,.88-.26,1.11-.64-.24,1.35-.38,2.74-.38,4.17,0,4,1.08,6.97,1.49,8.02.13.35.99,2.5,2.36,4.42,3.13,4.39,8.14,6.43,12.02,7.38,2.52.62,4.57.79,5.33.85.21,0,.42.03.65.05,1.26.09,2.81.16,4.47-.02,1-.11,2.04-.31,3.08-.64,1.2-.38,2.42-.94,3.58-1.75.3-.2.56-.41.77-.58.18-.14.32-.27.43-.37,0-.01.01-.02.02-.03.72-1.03,1.41-2.06,2.06-3.12.54-.86,1.06-1.74,1.56-2.62.3-.51.59-1.03.87-1.55.22-.42.45-.85.66-1.27.67-1.27,1.29-2.58,1.87-3.89.2-.44.38-.88.58-1.32.92-2.22,1.75-4.5,2.47-6.82v-.02c.1-.32.14-.66.12-1,0-.13-.02-.26-.05-.39ZM63.94,147.57c.93,2.59,3.43,4.45,6.35,4.45,1.39,0,2.68-.42,3.76-1.14.39-.26.76-.56,1.07-.9.4-.11.9-.2,1.42-.22h.02c.7.1,1.43.17,2.19.23h.01c1.06.09,2.17.15,3.34.19-.05.15-.11.28-.17.41-2.1,4.43-6.48,7.46-11.55,7.46-3.94,0-7.47-1.83-9.83-4.74-1.63-2.01-2.72-4.54-2.96-7.32-.01-.03-.01-.05-.01-.09-.02-.19-.03-.39-.04-.59-.01-.16-.01-.32-.01-.48,0-.19,0-.37.01-.57.04-1.39.29-2.73.71-3.98,1.77-5.19,6.53-8.9,12.13-8.9.81,0,1.6.08,2.37.22.01,0,.02,0,.02.01.25.1.5.19.76.28t.02.01c.74.27,1.53.53,2.32.76.01,0,.02.01.02.01.02.01.04.01.06.02.01.01.02.01.02.01.03.02.07.03.1.05.03.01.05.02.07.04.03.02.06.03.08.05,2.4,1.26,4.35,3.28,5.58,5.75.05.11.55,1.05.6,1.16-.26-.16-.64-.36-1.12-.57-.6-.26-2.19-.89-5.33-.91-1.22-.01-1.17.08-4.8.29-.27-.04-.56-.06-.86-.06-.53,0-1.06.06-1.56.18-2.99.7-5.2,3.38-5.2,6.58,0,.81.14,1.59.41,2.31ZM165.1,159.04c-8.15,0-14.75-6.61-14.75-14.76,0-1.36.18-2.68.53-3.94.4-1.45,1.02-2.82,1.83-4.06,1.21-1.88,2.83-3.47,4.74-4.63l3.18,8.35c-1.54,1.23-2.53,3.13-2.53,5.26,0,3.73,3.03,6.76,6.76,6.76s6.77-3.03,6.77-6.76c0-3.38-2.48-6.17-5.71-6.68l-3.36-8.84c.83-.15,1.67-.22,2.54-.22,8.16,0,14.76,6.61,14.76,14.76s-6.6,14.76-14.76,14.76Z"/>
  <path class="st1" d="M354.66,195.65v-93.29l-41.48,72.47h-7.1l-41.64-72.47v93.29h-11.3v-114.6h11.63l44.71,78.44,45.03-78.44h11.46v114.6h-11.3Z"/>
  <path class="st1" d="M415.35,197.27c-6.03,0-11.59-1.16-16.71-3.47-5.11-2.31-9.52-5.49-13.23-9.52-3.71-4.04-6.59-8.66-8.64-13.88-2.05-5.22-3.07-10.74-3.07-16.55s1.02-11.64,3.07-16.86c2.04-5.22,4.95-9.85,8.71-13.88,3.77-4.04,8.21-7.21,13.32-9.52,5.11-2.31,10.68-3.47,16.71-3.47s11.57,1.16,16.62,3.47c5.06,2.31,9.47,5.49,13.23,9.52,3.77,4.04,6.67,8.66,8.72,13.88,2.04,5.22,3.07,10.84,3.07,16.86s-1.02,11.33-3.07,16.55c-2.05,5.22-4.92,9.84-8.64,13.88-3.71,4.04-8.12,7.21-13.23,9.52-5.11,2.31-10.74,3.47-16.87,3.47ZM384.84,154.01c0,6.24,1.37,11.92,4.11,17.03,2.75,5.11,6.43,9.15,11.06,12.11,4.63,2.96,9.74,4.44,15.34,4.44s10.71-1.5,15.33-4.52c4.63-3.01,8.34-7.13,11.14-12.35,2.8-5.22,4.2-10.9,4.2-17.04s-1.4-11.94-4.2-17.11c-2.8-5.16-6.51-9.25-11.14-12.26-4.62-3.01-9.73-4.52-15.33-4.52s-10.68,1.56-15.25,4.68c-4.57,3.12-8.26,7.23-11.06,12.35-2.8,5.11-4.2,10.84-4.2,17.19Z"/>
  <path class="st1" d="M502.99,191.62c-.86.32-2.21.92-4.04,1.78-1.83.86-4.04,1.61-6.62,2.26-2.58.64-5.38.97-8.39.97s-6.06-.59-8.8-1.77c-2.74-1.18-4.92-2.99-6.54-5.41-1.61-2.42-2.42-5.41-2.42-8.96v-60.2h-11.62v-8.72h11.62v-28.41h10.98v28.41h19.37v8.72h-19.37v57.14c.22,3.01,1.32,5.27,3.31,6.78,1.99,1.51,4.28,2.26,6.86,2.26,3.01,0,5.76-.51,8.23-1.53,2.47-1.02,3.98-1.75,4.52-2.18l2.91,8.88Z"/>
  <path class="st1" d="M540.12,197.27c-6.03,0-11.63-1.16-16.79-3.47-5.16-2.31-9.63-5.49-13.4-9.52-3.76-4.04-6.7-8.69-8.8-13.96-2.1-5.27-3.15-10.92-3.15-16.95,0-7.85,1.8-15.06,5.4-21.63,3.61-6.56,8.58-11.81,14.93-15.74,6.35-3.93,13.56-5.89,21.63-5.89s15.52,1.99,21.71,5.97c6.19,3.98,11.06,9.23,14.61,15.74,3.55,6.51,5.33,13.64,5.33,21.38v2.5c0,.8-.05,1.42-.16,1.86h-71.99c.54,6.03,2.23,11.38,5.08,16.06,2.85,4.68,6.57,8.39,11.14,11.14,4.57,2.74,9.55,4.11,14.93,4.11s10.68-1.4,15.58-4.2c4.9-2.8,8.31-6.46,10.25-10.98l9.52,2.59c-1.72,3.98-4.36,7.58-7.91,10.81-3.55,3.23-7.72,5.73-12.51,7.51-4.79,1.77-9.93,2.66-15.41,2.66ZM509.12,149.65h62.14c-.43-6.13-2.07-11.51-4.92-16.14-2.85-4.63-6.56-8.26-11.13-10.89-4.57-2.64-9.6-3.96-15.09-3.96s-10.49,1.32-15.01,3.96c-4.52,2.63-8.21,6.29-11.06,10.97-2.85,4.68-4.49,10.03-4.92,16.06Z"/>
  <path class="st0" d="M577.57,170.63c0-5.49,1.53-10.3,4.6-14.45,3.07-4.14,7.34-7.34,12.83-9.6,5.49-2.26,11.78-3.39,18.89-3.39,3.55,0,7.15.27,10.81.81,3.66.54,6.83,1.4,9.52,2.58v-4.52c0-5.38-1.59-9.52-4.76-12.42-3.18-2.91-7.88-4.36-14.12-4.36-4.63,0-9.04.81-13.24,2.42-4.2,1.61-8.61,3.98-13.23,7.1l-6.94-14.21c5.59-3.66,11.32-6.4,17.19-8.23,5.86-1.83,12.02-2.74,18.48-2.74,12.05,0,21.44,3.01,28.16,9.04,6.73,6.03,10.09,14.63,10.09,25.82v26.96c0,2.26.4,3.88,1.21,4.85.81.97,2.13,1.56,3.96,1.77v17.59c-1.93.32-3.68.59-5.24.8-1.56.22-2.88.32-3.96.32-4.3,0-7.56-.97-9.76-2.9-2.21-1.94-3.58-4.31-4.11-7.1l-.49-4.36c-3.66,4.74-8.23,8.39-13.72,10.98-5.49,2.58-11.08,3.87-16.78,3.87s-10.63-1.16-15.1-3.47c-4.46-2.31-7.96-5.49-10.49-9.52-2.53-4.04-3.79-8.58-3.79-13.64ZM630.19,174.99c1.18-1.29,2.15-2.58,2.9-3.87.76-1.29,1.13-2.48,1.13-3.55v-8.56c-2.59-1.07-5.39-1.91-8.4-2.5-3.01-.59-5.86-.89-8.55-.89-5.59,0-10.19,1.21-13.8,3.63-3.6,2.42-5.4,5.62-5.4,9.6,0,2.15.59,4.2,1.77,6.14,1.18,1.93,2.91,3.49,5.16,4.68,2.26,1.19,4.95,1.78,8.07,1.78s6.4-.62,9.52-1.86c3.12-1.24,5.65-2.78,7.59-4.61Z"/>
  <path class="st0" d="M741.72,195.65h-21.63v-47.45c0-6.78-1.19-11.73-3.55-14.85-2.37-3.12-5.65-4.68-9.84-4.68-2.91,0-5.84.76-8.8,2.26-2.96,1.51-5.62,3.58-7.99,6.22-2.37,2.63-4.09,5.67-5.16,9.12v49.39h-21.62v-84.58h19.53v15.66c2.15-3.66,4.9-6.75,8.23-9.28,3.33-2.53,7.18-4.47,11.54-5.81,4.36-1.35,8.96-2.02,13.81-2.02,5.27,0,9.6.94,12.99,2.83,3.39,1.88,5.97,4.41,7.75,7.58,1.78,3.18,3.02,6.75,3.72,10.74.7,3.98,1.05,8.02,1.05,12.11v52.78Z"/>
  <path class="st0" d="M742.52,153.36c0-8.18,1.61-15.58,4.84-22.19,3.23-6.62,7.7-11.86,13.4-15.74,5.7-3.87,12.22-5.81,19.53-5.81,6.24,0,11.86,1.54,16.87,4.61,5,3.07,8.91,6.97,11.7,11.7v-48.1h21.63v93.62c0,2.26.38,3.88,1.13,4.85.75.97,2.04,1.56,3.87,1.77v17.59c-3.77.75-6.83,1.13-9.2,1.13-3.88,0-7.08-.97-9.61-2.9-2.53-1.94-3.95-4.47-4.28-7.59l-.32-5.33c-3.12,5.27-7.34,9.31-12.67,12.11-5.32,2.8-10.89,4.2-16.71,4.2s-11.16-1.13-16.06-3.39c-4.9-2.26-9.15-5.38-12.75-9.36-3.6-3.98-6.4-8.64-8.39-13.96-1.99-5.33-2.98-11.06-2.98-17.19ZM808.87,164.66v-20.18c-1.08-3.12-2.8-5.91-5.17-8.39-2.37-2.48-5-4.44-7.91-5.89-2.9-1.45-5.81-2.18-8.71-2.18-3.34,0-6.35.7-9.04,2.1-2.69,1.4-5.03,3.28-7.03,5.64-1.99,2.37-3.49,5.11-4.52,8.23-1.02,3.12-1.53,6.4-1.53,9.84s.56,6.7,1.69,9.77c1.13,3.07,2.77,5.73,4.92,7.99,2.15,2.26,4.66,4.03,7.51,5.33,2.85,1.29,5.95,1.94,9.28,1.94,2.04,0,4.12-.35,6.22-1.05,2.1-.7,4.09-1.67,5.97-2.91,1.89-1.24,3.55-2.74,5.01-4.52,1.45-1.78,2.56-3.69,3.31-5.73Z"/>
  <path class="st0" d="M877.94,197.27c-6.89,0-13.07-1.16-18.56-3.47-5.49-2.31-10.14-5.51-13.96-9.6-3.82-4.09-6.75-8.77-8.8-14.05-2.04-5.27-3.06-10.81-3.06-16.62s1.02-11.52,3.06-16.79c2.04-5.27,4.98-9.95,8.8-14.04,3.82-4.09,8.47-7.29,13.96-9.61,5.49-2.31,11.68-3.47,18.56-3.47s13.05,1.16,18.48,3.47c5.43,2.31,10.09,5.52,13.96,9.61,3.87,4.09,6.81,8.77,8.8,14.04,1.99,5.27,2.98,10.87,2.98,16.79s-1,11.35-2.98,16.62c-1.99,5.27-4.9,9.95-8.72,14.05-3.82,4.09-8.47,7.29-13.96,9.6-5.49,2.31-11.67,3.47-18.56,3.47ZM855.83,153.53c0,4.95.97,9.33,2.91,13.15,1.94,3.82,4.57,6.81,7.91,8.96,3.33,2.15,7.1,3.23,11.3,3.23s7.8-1.1,11.14-3.31c3.33-2.21,6-5.22,7.99-9.04,1.99-3.82,2.99-8.21,2.99-13.16s-1-9.2-2.99-13.07c-1.99-3.87-4.65-6.89-7.99-9.04-3.34-2.15-7.05-3.23-11.14-3.23s-7.96,1.1-11.3,3.31c-3.34,2.21-5.97,5.22-7.91,9.04-1.94,3.82-2.91,8.21-2.91,13.16Z"/>
</svg>